<svg width="420" height="800" viewBox="0 0 420 800" fill="none" xmlns="http://www.w3.org/2000/svg">
<g clip-path="url(#clip0_9570_9437)">
<rect width="420" height="800" transform="matrix(1 0 2.97148e-08 -1 0 800)" fill="#5BDCC6"/>
<g filter="url(#filter0_f_9570_9437)">
<path d="M-4.9171 826.17C65.2183 989.847 232.775 1029.89 369.331 915.597L426.376 867.854C562.932 753.566 616.777 528.23 546.642 364.552L471.009 188.046C400.874 24.3685 233.317 -15.6695 96.7613 98.6187L39.7161 146.362C-96.84 260.65 -150.685 485.986 -80.5494 649.664L-4.9171 826.17Z" fill="url(#paint0_radial_9570_9437)"/>
</g>
<g style="mix-blend-mode:color-dodge" filter="url(#filter1_f_9570_9437)">
<path d="M-138.343 448.171C-172.827 576.894 -105.064 731.329 13.0109 793.111L159.422 869.721C277.497 931.504 401.17 877.238 435.655 748.515L525.235 414.131C559.719 285.409 491.956 130.974 373.881 69.191L227.47 -7.41887C109.395 -69.2015 -14.2781 -14.9358 -48.7625 113.787L-138.343 448.171Z" fill="url(#paint1_radial_9570_9437)"/>
</g>
<g style="mix-blend-mode:color-dodge" filter="url(#filter2_f_9570_9437)">
<path d="M-105.021 179.627C-142.235 318.54 -69.1072 485.201 58.3149 551.875C185.737 618.549 319.201 559.987 356.416 421.074L394.054 280.577C431.269 141.664 358.141 -24.9972 230.719 -91.6709C103.296 -158.345 -30.1678 -99.783 -67.3822 39.1302L-105.021 179.627Z" fill="url(#paint2_radial_9570_9437)"/>
</g>
<g style="mix-blend-mode:color-dodge" filter="url(#filter3_f_9570_9437)">
<path d="M-73.4572 -21.9787C-110.672 116.935 -37.5437 283.596 89.8784 350.27C217.301 416.943 350.765 358.382 387.979 219.469L425.618 78.972C462.832 -59.9412 389.704 -226.603 262.282 -293.276C134.86 -359.95 1.39563 -301.388 -35.8187 -162.475L-73.4572 -21.9787Z" fill="url(#paint3_radial_9570_9437)"/>
</g>
</g>
<defs>
<filter id="filter0_f_9570_9437" x="-246.437" y="-101.634" width="958.965" height="1217.48" filterUnits="userSpaceOnUse" color-interpolation-filters="sRGB">
<feFlood flood-opacity="0" result="BackgroundImageFix"/>
<feBlend mode="normal" in="SourceGraphic" in2="BackgroundImageFix" result="shape"/>
<feGaussianBlur stdDeviation="67.5618" result="effect1_foregroundBlur_9570_9437"/>
</filter>
<filter id="filter1_f_9570_9437" x="-267.978" y="-153.581" width="922.849" height="1169.46" filterUnits="userSpaceOnUse" color-interpolation-filters="sRGB">
<feFlood flood-opacity="0" result="BackgroundImageFix"/>
<feBlend mode="normal" in="SourceGraphic" in2="BackgroundImageFix" result="shape"/>
<feGaussianBlur stdDeviation="60.323" result="effect1_foregroundBlur_9570_9437"/>
</filter>
<filter id="filter2_f_9570_9437" x="-235.368" y="-239.853" width="759.769" height="939.91" filterUnits="userSpaceOnUse" color-interpolation-filters="sRGB">
<feFlood flood-opacity="0" result="BackgroundImageFix"/>
<feBlend mode="normal" in="SourceGraphic" in2="BackgroundImageFix" result="shape"/>
<feGaussianBlur stdDeviation="60.323" result="effect1_foregroundBlur_9570_9437"/>
</filter>
<filter id="filter3_f_9570_9437" x="-203.804" y="-441.458" width="759.769" height="939.91" filterUnits="userSpaceOnUse" color-interpolation-filters="sRGB">
<feFlood flood-opacity="0" result="BackgroundImageFix"/>
<feBlend mode="normal" in="SourceGraphic" in2="BackgroundImageFix" result="shape"/>
<feGaussianBlur stdDeviation="60.323" result="effect1_foregroundBlur_9570_9437"/>
</filter>
<radialGradient id="paint0_radial_9570_9437" cx="0" cy="0" r="1" gradientUnits="userSpaceOnUse" gradientTransform="translate(174.064 457.009) rotate(-64.057) scale(430.794 365.238)">
<stop stop-color="#7A5AF8"/>
<stop offset="1" stop-color="#E888F8" stop-opacity="0"/>
</radialGradient>
<radialGradient id="paint1_radial_9570_9437" cx="0" cy="0" r="1" gradientUnits="userSpaceOnUse" gradientTransform="translate(237.348 658.134) rotate(-109.827) scale(377.238 300.148)">
<stop stop-color="#F257A0"/>
<stop offset="1" stop-color="#484EB7" stop-opacity="0"/>
<stop offset="1" stop-color="#D03F92" stop-opacity="0"/>
</radialGradient>
<radialGradient id="paint2_radial_9570_9437" cx="0" cy="0" r="1" gradientUnits="userSpaceOnUse" gradientTransform="translate(65.1617 137.14) rotate(-54.1123) scale(282.425 268.833)">
<stop stop-color="#444CE4"/>
<stop offset="1" stop-color="#037E82"/>
</radialGradient>
<radialGradient id="paint3_radial_9570_9437" cx="0" cy="0" r="1" gradientUnits="userSpaceOnUse" gradientTransform="translate(96.7252 -64.465) rotate(-54.1123) scale(282.425 268.833)">
<stop stop-color="#444CE4"/>
<stop offset="1" stop-color="#037E82"/>
</radialGradient>
<clipPath id="clip0_9570_9437">
<rect width="420" height="800" fill="white" transform="matrix(1 0 2.97148e-08 -1 0 800)"/>
</clipPath>
</defs>
</svg>
