<svg width="420" height="800" viewBox="0 0 420 800" fill="none" xmlns="http://www.w3.org/2000/svg">
<g clip-path="url(#clip0_9570_9374)">
<rect width="420" height="800" transform="matrix(1 0 2.79272e-08 -1 0 800)" fill="black"/>
<g filter="url(#filter0_f_9570_9374)">
<path d="M-4.91685 826.17C65.2185 989.848 232.775 1029.89 369.331 915.597L426.376 867.854C562.932 753.566 616.777 528.23 546.642 364.552L471.009 188.046C400.874 24.3687 233.318 -15.6693 96.7616 98.6189L39.7164 146.362C-96.8397 260.65 -150.684 485.986 -80.5491 649.664L-4.91685 826.17Z" fill="url(#paint0_radial_9570_9374)"/>
</g>
<g filter="url(#filter1_f_9570_9374)">
<path d="M68.6535 279.834C106.609 368.413 197.288 390.081 271.19 328.23C345.091 266.38 374.231 144.432 336.275 55.853L313.793 3.38728C275.837 -85.192 185.159 -106.86 111.257 -45.0094C37.3558 16.8412 8.21614 138.789 46.1721 227.368L68.6535 279.834Z" fill="url(#paint1_radial_9570_9374)"/>
</g>
<g style="mix-blend-mode:color-dodge" filter="url(#filter2_f_9570_9374)">
<path d="M25.5425 940.021C-11.6718 1078.93 61.456 1245.6 188.878 1312.27C316.3 1378.94 449.765 1320.38 486.979 1181.47L524.618 1040.97C561.832 902.059 488.704 735.397 361.282 668.724C233.86 602.05 100.395 660.612 63.181 799.525L25.5425 940.021Z" fill="url(#paint2_radial_9570_9374)"/>
</g>
<g style="mix-blend-mode:screen" filter="url(#filter3_f_9570_9374)">
<path d="M255.37 232.554C171.552 138.017 76.8651 112.917 39.9989 112.185C-34.7771 117.041 -150.67 131.124 -16.0329 148.61C152.263 170.467 179.264 262.849 328.817 426.136C448.46 556.766 478.848 488.52 479.087 438.068L435.348 350.925C410.279 350.859 339.188 327.092 255.37 232.554Z" fill="url(#paint3_radial_9570_9374)"/>
</g>
<g style="mix-blend-mode:screen" filter="url(#filter4_f_9570_9374)">
<path d="M334.37 448.554C250.552 354.017 155.865 328.917 118.999 328.185C44.2229 333.041 -71.6698 347.124 62.9671 364.61C231.263 386.467 258.264 478.849 407.817 642.136C527.46 772.766 557.848 704.52 558.087 654.068L514.348 566.925C489.279 566.859 418.188 543.092 334.37 448.554Z" fill="url(#paint4_radial_9570_9374)"/>
</g>
<g style="mix-blend-mode:screen" filter="url(#filter5_f_9570_9374)">
<path d="M-77.6302 -70.4455C-161.448 -164.983 -256.135 -190.083 -293.001 -190.815C-367.777 -185.959 -483.67 -171.876 -349.033 -154.39C-180.737 -132.533 -153.737 -40.151 -4.18285 123.136C115.46 253.766 145.848 185.52 146.087 135.068L102.347 47.9252C77.279 47.8589 6.18784 24.0919 -77.6302 -70.4455Z" fill="url(#paint5_radial_9570_9374)"/>
</g>
<g style="mix-blend-mode:screen" filter="url(#filter6_f_9570_9374)">
<path fill-rule="evenodd" clip-rule="evenodd" d="M188.025 402.983C228.359 420.778 275.894 451.391 320.37 501.554C404.188 596.092 475.279 619.859 500.348 619.925L544.087 707.068C543.848 757.52 513.46 825.766 393.817 695.136C357.238 655.198 327.991 619.502 302.215 588.042C257.625 533.621 223.421 491.876 179.62 462.778C162.615 485.103 127.107 486.558 60.0119 419.176C56.3985 418.619 52.7179 418.097 48.967 417.61C-43.2592 405.632 -17.9308 395.251 31.2116 388.339C-0.0417059 353.534 -25.7942 322.103 -48.7854 294.042C-128.397 196.877 -174.9 140.121 -302.033 123.61C-436.67 106.124 -320.777 92.0409 -246.001 87.1848C-209.135 87.9174 -114.448 113.017 -30.6302 207.554C53.1878 302.092 124.279 325.859 149.347 325.925L188.025 402.983Z" fill="url(#paint6_radial_9570_9374)"/>
</g>
<g style="mix-blend-mode:screen" filter="url(#filter7_f_9570_9374)">
<path d="M377.37 673.554C293.552 579.017 198.865 553.917 161.999 553.185C87.2229 558.041 -28.6698 572.124 105.967 589.61C274.263 611.467 301.264 703.849 450.817 867.136C570.46 997.766 600.848 929.52 601.087 879.068L557.348 791.925C532.279 791.859 461.188 768.092 377.37 673.554Z" fill="url(#paint7_radial_9570_9374)"/>
</g>
<g style="mix-blend-mode:screen" filter="url(#filter8_f_9570_9374)">
<path d="M213.5 643.821C167.5 471.021 63.6667 379.154 17.5 354.821C-80.1667 313.487 -235.7 257.721 -76.5 365.321C122.5 499.821 98 633.821 183.5 935.321C251.9 1176.52 333.667 1109.49 366 1045.82L366 907.821C334.333 891.821 259.5 816.621 213.5 643.821Z" fill="url(#paint8_radial_9570_9374)"/>
</g>
</g>
<defs>
<filter id="filter0_f_9570_9374" x="-246.436" y="-101.634" width="958.965" height="1217.48" filterUnits="userSpaceOnUse" color-interpolation-filters="sRGB">
<feFlood flood-opacity="0" result="BackgroundImageFix"/>
<feBlend mode="normal" in="SourceGraphic" in2="BackgroundImageFix" result="shape"/>
<feGaussianBlur stdDeviation="67.5618" result="effect1_foregroundBlur_9570_9374"/>
</filter>
<filter id="filter1_f_9570_9374" x="-105.6" y="-215.38" width="593.647" height="713.98" filterUnits="userSpaceOnUse" color-interpolation-filters="sRGB">
<feFlood flood-opacity="0" result="BackgroundImageFix"/>
<feBlend mode="normal" in="SourceGraphic" in2="BackgroundImageFix" result="shape"/>
<feGaussianBlur stdDeviation="67.5618" result="effect1_foregroundBlur_9570_9374"/>
</filter>
<filter id="filter2_f_9570_9374" x="-104.804" y="520.542" width="759.769" height="939.91" filterUnits="userSpaceOnUse" color-interpolation-filters="sRGB">
<feFlood flood-opacity="0" result="BackgroundImageFix"/>
<feBlend mode="normal" in="SourceGraphic" in2="BackgroundImageFix" result="shape"/>
<feGaussianBlur stdDeviation="60.323" result="effect1_foregroundBlur_9570_9374"/>
</filter>
<filter id="filter3_f_9570_9374" x="-126.962" y="63.1849" width="655.049" height="487.375" filterUnits="userSpaceOnUse" color-interpolation-filters="sRGB">
<feFlood flood-opacity="0" result="BackgroundImageFix"/>
<feBlend mode="normal" in="SourceGraphic" in2="BackgroundImageFix" result="shape"/>
<feGaussianBlur stdDeviation="24.5" result="effect1_foregroundBlur_9570_9374"/>
</filter>
<filter id="filter4_f_9570_9374" x="-47.9617" y="279.185" width="655.049" height="487.375" filterUnits="userSpaceOnUse" color-interpolation-filters="sRGB">
<feFlood flood-opacity="0" result="BackgroundImageFix"/>
<feBlend mode="normal" in="SourceGraphic" in2="BackgroundImageFix" result="shape"/>
<feGaussianBlur stdDeviation="24.5" result="effect1_foregroundBlur_9570_9374"/>
</filter>
<filter id="filter5_f_9570_9374" x="-459.962" y="-239.815" width="655.049" height="487.375" filterUnits="userSpaceOnUse" color-interpolation-filters="sRGB">
<feFlood flood-opacity="0" result="BackgroundImageFix"/>
<feBlend mode="normal" in="SourceGraphic" in2="BackgroundImageFix" result="shape"/>
<feGaussianBlur stdDeviation="24.5" result="effect1_foregroundBlur_9570_9374"/>
</filter>
<filter id="filter6_f_9570_9374" x="-412.962" y="38.1848" width="1006.05" height="781.375" filterUnits="userSpaceOnUse" color-interpolation-filters="sRGB">
<feFlood flood-opacity="0" result="BackgroundImageFix"/>
<feBlend mode="normal" in="SourceGraphic" in2="BackgroundImageFix" result="shape"/>
<feGaussianBlur stdDeviation="24.5" result="effect1_foregroundBlur_9570_9374"/>
</filter>
<filter id="filter7_f_9570_9374" x="-4.96167" y="504.185" width="655.049" height="487.375" filterUnits="userSpaceOnUse" color-interpolation-filters="sRGB">
<feFlood flood-opacity="0" result="BackgroundImageFix"/>
<feBlend mode="normal" in="SourceGraphic" in2="BackgroundImageFix" result="shape"/>
<feGaussianBlur stdDeviation="24.5" result="effect1_foregroundBlur_9570_9374"/>
</filter>
<filter id="filter8_f_9570_9374" x="-193.918" y="254" width="608.918" height="900.492" filterUnits="userSpaceOnUse" color-interpolation-filters="sRGB">
<feFlood flood-opacity="0" result="BackgroundImageFix"/>
<feBlend mode="normal" in="SourceGraphic" in2="BackgroundImageFix" result="shape"/>
<feGaussianBlur stdDeviation="24.5" result="effect1_foregroundBlur_9570_9374"/>
</filter>
<radialGradient id="paint0_radial_9570_9374" cx="0" cy="0" r="1" gradientUnits="userSpaceOnUse" gradientTransform="translate(174.064 457.01) rotate(-64.057) scale(430.794 365.238)">
<stop stop-color="#00E29A"/>
<stop offset="1" stop-color="#2C32FE" stop-opacity="0.31"/>
</radialGradient>
<radialGradient id="paint1_radial_9570_9374" cx="0" cy="0" r="1" gradientUnits="userSpaceOnUse" gradientTransform="translate(162.605 117.302) rotate(-64.057) scale(209.025 177.217)">
<stop stop-color="#00E29A"/>
<stop offset="1" stop-color="#2C32FE" stop-opacity="0.31"/>
</radialGradient>
<radialGradient id="paint2_radial_9570_9374" cx="0" cy="0" r="1" gradientUnits="userSpaceOnUse" gradientTransform="translate(195.725 897.535) rotate(-54.1123) scale(282.425 268.833)">
<stop stop-color="#5BDCC6"/>
<stop offset="1" stop-color="#F257A0" stop-opacity="0"/>
</radialGradient>
<radialGradient id="paint3_radial_9570_9374" cx="0" cy="0" r="1" gradientUnits="userSpaceOnUse" gradientTransform="translate(322.314 348.225) rotate(-147.168) scale(224.278 197.239)">
<stop stop-color="#DC4897"/>
<stop offset="1" stop-color="#484EB7" stop-opacity="0"/>
<stop offset="1" stop-color="#9FA7FF" stop-opacity="0"/>
</radialGradient>
<radialGradient id="paint4_radial_9570_9374" cx="0" cy="0" r="1" gradientUnits="userSpaceOnUse" gradientTransform="translate(401.314 564.225) rotate(-147.168) scale(224.278 197.239)">
<stop stop-color="#DC4897"/>
<stop offset="1" stop-color="#484EB7" stop-opacity="0"/>
<stop offset="1" stop-color="#9FA7FF" stop-opacity="0"/>
</radialGradient>
<radialGradient id="paint5_radial_9570_9374" cx="0" cy="0" r="1" gradientUnits="userSpaceOnUse" gradientTransform="translate(-10.6867 45.2254) rotate(-147.168) scale(224.278 197.239)">
<stop stop-color="#DC4897"/>
<stop offset="1" stop-color="#484EB7" stop-opacity="0"/>
<stop offset="1" stop-color="#9FA7FF" stop-opacity="0"/>
</radialGradient>
<radialGradient id="paint6_radial_9570_9374" cx="0" cy="0" r="1" gradientUnits="userSpaceOnUse" gradientTransform="translate(36.3134 323.225) rotate(-147.168) scale(224.278 197.239)">
<stop stop-color="#5DAAAE"/>
<stop offset="1" stop-color="#484EB7" stop-opacity="0"/>
<stop offset="1" stop-color="#9FA7FF" stop-opacity="0"/>
</radialGradient>
<radialGradient id="paint7_radial_9570_9374" cx="0" cy="0" r="1" gradientUnits="userSpaceOnUse" gradientTransform="translate(444.314 789.225) rotate(-147.168) scale(224.278 197.239)">
<stop stop-color="#DC4897"/>
<stop offset="1" stop-color="#484EB7" stop-opacity="0"/>
<stop offset="1" stop-color="#9FA7FF" stop-opacity="0"/>
</radialGradient>
<radialGradient id="paint8_radial_9570_9374" cx="0" cy="0" r="1" gradientUnits="userSpaceOnUse" gradientTransform="translate(224.738 832.64) rotate(-120.513) scale(317.425 279.152)">
<stop stop-color="#DC4897"/>
<stop offset="1" stop-color="#484EB7" stop-opacity="0"/>
<stop offset="1" stop-color="#9FA7FF" stop-opacity="0"/>
</radialGradient>
<clipPath id="clip0_9570_9374">
<rect width="420" height="800" fill="white" transform="matrix(1 0 2.79272e-08 -1 0 800)"/>
</clipPath>
</defs>
</svg>
