<svg width="420" height="800" viewBox="0 0 420 800" fill="none" xmlns="http://www.w3.org/2000/svg">
<g clip-path="url(#clip0_9570_9650)">
<rect width="420" height="800" transform="matrix(1 0 2.79272e-08 -1 0 800)" fill="white"/>
<g filter="url(#filter0_f_9570_9650)">
<path d="M-32.6064 545.396C55.463 698.456 248.346 746.816 398.209 653.411C548.073 560.006 598.166 360.207 510.097 207.147L504.702 197.77C416.632 44.7101 223.75 -3.64975 73.8862 89.7551C-75.9772 183.16 -126.071 382.959 -38.0018 536.019L-32.6064 545.396Z" fill="url(#paint0_radial_9570_9650)"/>
</g>
<g style="mix-blend-mode:color-dodge" filter="url(#filter1_f_9570_9650)">
<path d="M-104.121 300.539C-149.23 425.934 -85.1398 566.81 39.0282 615.194L154.158 660.057C278.326 708.441 415.552 646.011 460.661 520.616L508.323 388.125C553.432 262.73 489.342 121.854 365.174 73.4699L250.044 28.6076C125.876 -19.7766 -11.3499 42.6531 -56.459 168.048L-104.121 300.539Z" fill="url(#paint1_radial_9570_9650)"/>
</g>
<g style="mix-blend-mode:multiply" filter="url(#filter2_f_9570_9650)">
<path d="M-80.9254 485.95C-126.034 611.345 -61.9444 752.221 62.2236 800.605L94.9468 813.356C219.115 861.741 356.341 799.311 401.45 673.916L418.323 627.013C463.432 501.618 399.342 360.742 275.174 312.358L242.45 299.607C118.282 251.223 -18.9437 313.652 -64.0528 439.047L-80.9254 485.95Z" fill="url(#paint2_radial_9570_9650)"/>
</g>
<g style="mix-blend-mode:color-dodge" filter="url(#filter3_f_9570_9650)">
<path d="M-202.192 666.299C-247.74 792.915 -183.026 935.161 -57.65 984.017C67.7264 1032.87 206.288 969.834 251.836 843.219L256.528 830.177C302.076 703.562 237.362 561.315 111.986 512.46C-13.3907 463.605 -151.952 526.642 -197.5 653.257L-202.192 666.299Z" fill="url(#paint3_radial_9570_9650)"/>
</g>
</g>
<defs>
<filter id="filter0_f_9570_9650" x="-216.562" y="-92.9438" width="905.22" height="929.054" filterUnits="userSpaceOnUse" color-interpolation-filters="sRGB">
<feFlood flood-opacity="0" result="BackgroundImageFix"/>
<feBlend mode="normal" in="SourceGraphic" in2="BackgroundImageFix" result="shape"/>
<feGaussianBlur stdDeviation="67.5618" result="effect1_foregroundBlur_9570_9650"/>
</filter>
<filter id="filter1_f_9570_9650" x="-239.209" y="-108.419" width="882.619" height="905.503" filterUnits="userSpaceOnUse" color-interpolation-filters="sRGB">
<feFlood flood-opacity="0" result="BackgroundImageFix"/>
<feBlend mode="normal" in="SourceGraphic" in2="BackgroundImageFix" result="shape"/>
<feGaussianBlur stdDeviation="60.323" result="effect1_foregroundBlur_9570_9650"/>
</filter>
<filter id="filter2_f_9570_9650" x="-216.013" y="162.58" width="769.424" height="787.804" filterUnits="userSpaceOnUse" color-interpolation-filters="sRGB">
<feFlood flood-opacity="0" result="BackgroundImageFix"/>
<feBlend mode="normal" in="SourceGraphic" in2="BackgroundImageFix" result="shape"/>
<feGaussianBlur stdDeviation="60.323" result="effect1_foregroundBlur_9570_9650"/>
</filter>
<filter id="filter3_f_9570_9650" x="-337.42" y="375.273" width="729.177" height="745.93" filterUnits="userSpaceOnUse" color-interpolation-filters="sRGB">
<feFlood flood-opacity="0" result="BackgroundImageFix"/>
<feBlend mode="normal" in="SourceGraphic" in2="BackgroundImageFix" result="shape"/>
<feGaussianBlur stdDeviation="60.323" result="effect1_foregroundBlur_9570_9650"/>
</filter>
<radialGradient id="paint0_radial_9570_9650" cx="0" cy="0" r="1" gradientUnits="userSpaceOnUse" gradientTransform="translate(178.013 334.873) rotate(-56.8442) scale(339.057 334.579)">
<stop stop-color="#45AEA4"/>
<stop offset="1" stop-color="#39CABB" stop-opacity="0"/>
</radialGradient>
<radialGradient id="paint1_radial_9570_9650" cx="0" cy="0" r="1" gradientUnits="userSpaceOnUse" gradientTransform="translate(245.298 510.653) rotate(-115.834) scale(288.908 282.564)">
<stop stop-color="#5DAAAE"/>
<stop offset="1" stop-color="#484EB7" stop-opacity="0"/>
<stop offset="1" stop-color="#9FA7FF" stop-opacity="0"/>
</radialGradient>
<radialGradient id="paint2_radial_9570_9650" cx="0" cy="0" r="1" gradientUnits="userSpaceOnUse" gradientTransform="translate(205.592 698.535) rotate(-115.834) scale(246.754 241.335)">
<stop stop-color="#FF85E4"/>
<stop offset="1" stop-color="#484EB7" stop-opacity="0"/>
<stop offset="1" stop-color="#9FA7FF" stop-opacity="0"/>
</radialGradient>
<radialGradient id="paint3_radial_9570_9650" cx="0" cy="0" r="1" gradientUnits="userSpaceOnUse" gradientTransform="translate(-50.9132 680.121) rotate(-45.8254) scale(233.765 234.17)">
<stop stop-color="#444CE4"/>
<stop offset="1" stop-color="#F257A0"/>
</radialGradient>
<clipPath id="clip0_9570_9650">
<rect width="420" height="800" fill="white" transform="matrix(1 0 2.79272e-08 -1 0 800)"/>
</clipPath>
</defs>
</svg>
