<svg width="420" height="800" viewBox="0 0 420 800" fill="none" xmlns="http://www.w3.org/2000/svg">
<g clip-path="url(#clip0_9570_9542)">
<rect width="420" height="800" transform="matrix(1 0 2.79272e-08 -1 0 800)" fill="url(#paint0_radial_9570_9542)"/>
<g filter="url(#filter0_f_9570_9542)">
<path d="M-4.91661 826.17C65.2188 989.847 232.775 1029.89 369.331 915.597L426.377 867.854C562.933 753.566 616.777 528.23 546.642 364.552L471.01 188.046C400.874 24.3685 233.318 -15.6695 96.7618 98.6187L39.7166 146.362C-96.8395 260.65 -150.684 485.986 -80.5489 649.664L-4.91661 826.17Z" fill="url(#paint1_radial_9570_9542)"/>
</g>
<g filter="url(#filter1_f_9570_9542)">
<path d="M68.6535 279.834C106.609 368.413 197.288 390.081 271.19 328.23C345.091 266.38 374.231 144.432 336.275 55.8528L313.793 3.38704C275.837 -85.1922 185.159 -106.86 111.257 -45.0097C37.3558 16.841 8.21614 138.788 46.1721 227.368L68.6535 279.834Z" fill="url(#paint2_radial_9570_9542)"/>
</g>
<g filter="url(#filter2_f_9570_9542)">
<path d="M243.654 387.834C281.609 476.413 372.288 498.081 446.19 436.231C520.091 374.38 549.231 252.433 511.275 163.853L488.793 111.388C450.837 22.8082 360.159 1.14017 286.257 62.9908C212.356 124.841 183.216 246.789 221.172 335.368L243.654 387.834Z" fill="url(#paint3_radial_9570_9542)"/>
</g>
<g style="mix-blend-mode:color-dodge" filter="url(#filter3_f_9570_9542)">
<path d="M119.406 86.0218C84.922 214.745 152.685 369.18 270.76 430.963L417.171 507.573C535.246 569.355 658.92 515.089 693.404 386.367L759.561 139.418C794.045 10.6952 726.282 -143.74 608.207 -205.523L461.796 -282.133C343.721 -343.915 220.047 -289.65 185.563 -160.927L119.406 86.0218Z" fill="url(#paint4_radial_9570_9542)"/>
</g>
<g style="mix-blend-mode:color-dodge" filter="url(#filter4_f_9570_9542)">
<path d="M-39.4577 102.021C-76.6721 240.934 -3.54422 407.596 123.878 474.269C251.3 540.943 384.764 482.382 421.979 343.468L459.617 202.972C496.832 64.0585 423.704 -102.603 296.282 -169.277C168.859 -235.95 35.3952 -177.389 -1.8192 -38.4755L-39.4577 102.021Z" fill="url(#paint5_radial_9570_9542)"/>
</g>
<g style="mix-blend-mode:color-dodge" filter="url(#filter5_f_9570_9542)">
<path d="M25.5423 940.021C-11.6721 1078.93 61.4558 1245.6 188.878 1312.27C316.3 1378.94 449.764 1320.38 486.979 1181.47L524.617 1040.97C561.832 902.058 488.704 735.397 361.282 668.723C233.859 602.05 100.395 660.611 63.1808 799.525L25.5423 940.021Z" fill="url(#paint6_radial_9570_9542)"/>
</g>
<g style="mix-blend-mode:color-dodge" filter="url(#filter6_f_9570_9542)">
<path d="M289.5 442C243.5 269.199 139.667 177.333 93.5 153C-4.16666 111.666 -159.7 55.8995 -0.500004 163.5C198.5 298 174 432 259.5 733.5C327.9 974.7 409.667 907.666 442 844L442 706C410.333 690 335.5 614.8 289.5 442Z" fill="url(#paint7_linear_9570_9542)"/>
</g>
<g style="mix-blend-mode:color-dodge" filter="url(#filter7_f_9570_9542)">
<path d="M213.5 643.821C167.5 471.021 63.6667 379.154 17.5 354.821C-80.1667 313.487 -235.7 257.721 -76.5 365.321C122.5 499.821 98 633.821 183.5 935.321C251.9 1176.52 333.667 1109.49 366 1045.82L366 907.821C334.333 891.821 259.5 816.621 213.5 643.821Z" fill="url(#paint8_linear_9570_9542)"/>
</g>
</g>
<defs>
<filter id="filter0_f_9570_9542" x="-246.436" y="-101.634" width="958.965" height="1217.48" filterUnits="userSpaceOnUse" color-interpolation-filters="sRGB">
<feFlood flood-opacity="0" result="BackgroundImageFix"/>
<feBlend mode="normal" in="SourceGraphic" in2="BackgroundImageFix" result="shape"/>
<feGaussianBlur stdDeviation="67.5618" result="effect1_foregroundBlur_9570_9542"/>
</filter>
<filter id="filter1_f_9570_9542" x="-105.6" y="-215.38" width="593.647" height="713.98" filterUnits="userSpaceOnUse" color-interpolation-filters="sRGB">
<feFlood flood-opacity="0" result="BackgroundImageFix"/>
<feBlend mode="normal" in="SourceGraphic" in2="BackgroundImageFix" result="shape"/>
<feGaussianBlur stdDeviation="67.5618" result="effect1_foregroundBlur_9570_9542"/>
</filter>
<filter id="filter2_f_9570_9542" x="69.3999" y="-107.379" width="593.647" height="713.98" filterUnits="userSpaceOnUse" color-interpolation-filters="sRGB">
<feFlood flood-opacity="0" result="BackgroundImageFix"/>
<feBlend mode="normal" in="SourceGraphic" in2="BackgroundImageFix" result="shape"/>
<feGaussianBlur stdDeviation="67.5618" result="effect1_foregroundBlur_9570_9542"/>
</filter>
<filter id="filter3_f_9570_9542" x="-10.229" y="-428.294" width="899.425" height="1082.03" filterUnits="userSpaceOnUse" color-interpolation-filters="sRGB">
<feFlood flood-opacity="0" result="BackgroundImageFix"/>
<feBlend mode="normal" in="SourceGraphic" in2="BackgroundImageFix" result="shape"/>
<feGaussianBlur stdDeviation="60.323" result="effect1_foregroundBlur_9570_9542"/>
</filter>
<filter id="filter4_f_9570_9542" x="-169.805" y="-317.459" width="759.769" height="939.91" filterUnits="userSpaceOnUse" color-interpolation-filters="sRGB">
<feFlood flood-opacity="0" result="BackgroundImageFix"/>
<feBlend mode="normal" in="SourceGraphic" in2="BackgroundImageFix" result="shape"/>
<feGaussianBlur stdDeviation="60.323" result="effect1_foregroundBlur_9570_9542"/>
</filter>
<filter id="filter5_f_9570_9542" x="-104.805" y="520.541" width="759.769" height="939.91" filterUnits="userSpaceOnUse" color-interpolation-filters="sRGB">
<feFlood flood-opacity="0" result="BackgroundImageFix"/>
<feBlend mode="normal" in="SourceGraphic" in2="BackgroundImageFix" result="shape"/>
<feGaussianBlur stdDeviation="60.323" result="effect1_foregroundBlur_9570_9542"/>
</filter>
<filter id="filter6_f_9570_9542" x="-117.918" y="52.1787" width="608.918" height="900.492" filterUnits="userSpaceOnUse" color-interpolation-filters="sRGB">
<feFlood flood-opacity="0" result="BackgroundImageFix"/>
<feBlend mode="normal" in="SourceGraphic" in2="BackgroundImageFix" result="shape"/>
<feGaussianBlur stdDeviation="24.5" result="effect1_foregroundBlur_9570_9542"/>
</filter>
<filter id="filter7_f_9570_9542" x="-193.918" y="254" width="608.918" height="900.492" filterUnits="userSpaceOnUse" color-interpolation-filters="sRGB">
<feFlood flood-opacity="0" result="BackgroundImageFix"/>
<feBlend mode="normal" in="SourceGraphic" in2="BackgroundImageFix" result="shape"/>
<feGaussianBlur stdDeviation="24.5" result="effect1_foregroundBlur_9570_9542"/>
</filter>
<radialGradient id="paint0_radial_9570_9542" cx="0" cy="0" r="1" gradientUnits="userSpaceOnUse" gradientTransform="translate(84 -17.5001) rotate(104.259) scale(966.269 507.291)">
<stop stop-color="#FEDA86"/>
<stop offset="1" stop-color="#FD5533"/>
</radialGradient>
<radialGradient id="paint1_radial_9570_9542" cx="0" cy="0" r="1" gradientUnits="userSpaceOnUse" gradientTransform="translate(174.065 457.009) rotate(-64.057) scale(430.794 365.238)">
<stop stop-color="#E31B53"/>
<stop offset="1" stop-color="#F257A0" stop-opacity="0"/>
</radialGradient>
<radialGradient id="paint2_radial_9570_9542" cx="0" cy="0" r="1" gradientUnits="userSpaceOnUse" gradientTransform="translate(162.605 117.302) rotate(-64.057) scale(209.025 177.217)">
<stop stop-color="#E31B53"/>
<stop offset="1" stop-color="#F257A0" stop-opacity="0"/>
</radialGradient>
<radialGradient id="paint3_radial_9570_9542" cx="0" cy="0" r="1" gradientUnits="userSpaceOnUse" gradientTransform="translate(337.605 225.302) rotate(-64.057) scale(209.025 177.217)">
<stop stop-color="#E31B53"/>
<stop offset="1" stop-color="#F257A0" stop-opacity="0"/>
</radialGradient>
<radialGradient id="paint4_radial_9570_9542" cx="0" cy="0" r="1" gradientUnits="userSpaceOnUse" gradientTransform="translate(488.62 320.16) rotate(-112.465) scale(354.173 284.777)">
<stop stop-color="#31BAAE"/>
<stop offset="1" stop-color="#5BDCC6" stop-opacity="0"/>
</radialGradient>
<radialGradient id="paint5_radial_9570_9542" cx="0" cy="0" r="1" gradientUnits="userSpaceOnUse" gradientTransform="translate(130.725 59.5347) rotate(-54.1123) scale(282.425 268.833)">
<stop stop-color="#5BDCC6"/>
<stop offset="1" stop-color="#F257A0" stop-opacity="0"/>
</radialGradient>
<radialGradient id="paint6_radial_9570_9542" cx="0" cy="0" r="1" gradientUnits="userSpaceOnUse" gradientTransform="translate(195.725 897.535) rotate(-54.1123) scale(282.425 268.833)">
<stop stop-color="#5BDCC6"/>
<stop offset="1" stop-color="#F257A0" stop-opacity="0"/>
</radialGradient>
<linearGradient id="paint7_linear_9570_9542" x1="461.908" y1="904.283" x2="-262.881" y2="397.263" gradientUnits="userSpaceOnUse">
<stop stop-color="#F257A0"/>
<stop offset="1" stop-color="#484EB7" stop-opacity="0"/>
<stop offset="1" stop-color="#D03F92" stop-opacity="0"/>
</linearGradient>
<linearGradient id="paint8_linear_9570_9542" x1="385.908" y1="1106.1" x2="-338.881" y2="599.084" gradientUnits="userSpaceOnUse">
<stop stop-color="#F257A0"/>
<stop offset="1" stop-color="#484EB7" stop-opacity="0"/>
<stop offset="1" stop-color="#D03F92" stop-opacity="0"/>
</linearGradient>
<clipPath id="clip0_9570_9542">
<rect width="420" height="800" fill="white" transform="matrix(1 0 2.79272e-08 -1 0 800)"/>
</clipPath>
</defs>
</svg>
